<?xml version="1.0" encoding="UTF-8"?>
<svg width="256" height="256" viewBox="0 0 256 256" xmlns="http://www.w3.org/2000/svg">
  <!-- Простий фон -->
  <rect width="256" height="256" rx="32" fill="#FFB6C1"/>
  
  <!-- Тіло свинки -->
  <ellipse cx="128" cy="140" rx="60" ry="50" fill="#FFC0CB"/>
  
  <!-- Голова свинки -->
  <circle cx="128" cy="90" r="40" fill="#FFC0CB"/>
  
  <!-- Вуха -->
  <ellipse cx="110" cy="70" rx="8" ry="15" fill="#FFB6C1" transform="rotate(-20 110 70)"/>
  <ellipse cx="146" cy="70" rx="8" ry="15" fill="#FFB6C1" transform="rotate(20 146 70)"/>
  
  <!-- Очі -->
  <circle cx="118" cy="85" r="6" fill="black"/>
  <circle cx="138" cy="85" r="6" fill="black"/>
  <circle cx="119" cy="83" r="2" fill="white"/>
  <circle cx="139" cy="83" r="2" fill="white"/>
  
  <!-- П'ятачок -->
  <ellipse cx="128" cy="100" rx="10" ry="8" fill="#FF69B4"/>
  <circle cx="125" cy="98" r="1.5" fill="#8B0000"/>
  <circle cx="131" cy="98" r="1.5" fill="#8B0000"/>
  
  <!-- Рот -->
  <path d="M120 110 Q128 115 136 110" fill="none" stroke="#8B0000" stroke-width="2" stroke-linecap="round"/>
  
  <!-- Ноги -->
  <rect x="105" y="175" width="8" height="15" rx="4" fill="#FFB6C1"/>
  <rect x="120" y="175" width="8" height="15" rx="4" fill="#FFB6C1"/>
  <rect x="135" y="175" width="8" height="15" rx="4" fill="#FFB6C1"/>
  <rect x="150" y="175" width="8" height="15" rx="4" fill="#FFB6C1"/>
  
  <!-- Хвостик -->
  <path d="M180 130 Q190 125 185 135 Q180 145 190 140" fill="none" stroke="#FFB6C1" stroke-width="4" stroke-linecap="round"/>
  
  <!-- Символ K (для KontrNahryuk) -->
  <text x="128" y="140" text-anchor="middle" font-family="Arial Black" font-size="24" fill="white" font-weight="bold">K</text>
</svg>